<?xml version="1.0" standalone="no"?>
<!DOCTYPE svg PUBLIC "-//W3C//DTD SVG 20010904//EN"
 "http://www.w3.org/TR/2001/REC-SVG-20010904/DTD/svg10.dtd">
<svg version="1.0" xmlns="http://www.w3.org/2000/svg"
 width="1229.000000pt" height="1280.000000pt" viewBox="0 0 1229.000000 1280.000000"
 preserveAspectRatio="xMidYMid meet">
<metadata>
Created by potrace 1.15, written by Peter Selinger 2001-2017
</metadata>
<g transform="translate(0.000000,1280.000000) scale(0.100000,-0.100000)"
fill="#000000" stroke="none">
<path d="M5905 12794 c-522 -42 -975 -168 -1420 -398 -1080 -556 -1803 -1608
-1941 -2821 -32 -277 -22 -670 22 -955 158 -1004 728 -1892 1579 -2457 1314
-872 3040 -792 4270 198 620 500 1056 1183 1245 1954 77 314 102 527 102 865
0 426 -58 780 -192 1173 -448 1314 -1613 2254 -3005 2423 -124 15 -551 26
-660 18z"/>
<path d="M2784 5554 c-301 -211 -536 -406 -808 -674 -527 -518 -921 -1061
-1255 -1730 -458 -917 -690 -1857 -718 -2903 l-6 -247 6146 0 6147 0 0 143
c-1 1144 -327 2357 -900 3352 -480 833 -1170 1584 -1913 2084 l-78 52 -42 -35
c-23 -19 -82 -70 -132 -111 -596 -503 -1357 -869 -2131 -1024 -336 -68 -605
-94 -949 -94 -260 0 -422 11 -660 44 -894 126 -1742 503 -2423 1077 -57 48
-119 99 -137 114 l-32 28 -109 -76z"/>
</g>
</svg>
